# xmcd
#
# Track frame offsets: 
#        150
#        19632
#        34067
#        47195
#        62810
#        83312
#        97350
#        111582
#        131355
#        146007
#        162900
#        179697
#        194330
#        209752
#        227677
#        250080
#        271320
#
# Disc length: 3901 seconds
#
# Revision: 1
# Processed by: cddbd v1.5.1PL2 Copyright (c) Steve Scherf et al.
# Submitted via: ExactAudioCopy v0.95b3
#
DISCID=f90f3b11
DTITLE=Clifton Chenier - Out West
DYEAR=1991
DGENRE=Blues
TTITLE0=I'm on the Wonder
TTITLE1=The Hucklebuck
TTITLE2=Je Marche le Plancher (You Know It Ain't Fair)
TTITLE3=Calinda
TTITLE4=You're the One for Me
TTITLE5=You're Fussin' Too Much
TTITLE6=Just Like a Woman
TTITLE7=All Your Love
TTITLE8=C. C. Special (Take #2)
TTITLE9=I'm a Hog for You Baby
TTITLE10=C. C. Special (Take #1)
TTITLE11=Ti Na Na
TTITLE12=Zydeco Cha Cha
TTITLE13=Crawfish Jambalaya
TTITLE14=Ma Negresse Est Gone 
TTITLE15=Breaux Bridge Waltz
TTITLE16=Louisiana Two-Step
EXTD=
EXTT0=
EXTT1=
EXTT2=
EXTT3=
EXTT4=
EXTT5=
EXTT6=
EXTT7=
EXTT8=
EXTT9=
EXTT10=
EXTT11=
EXTT12=
EXTT13=
EXTT14=
EXTT15=
EXTT16=
PLAYORDER=
